<?xml version="1.0" encoding="UTF-8"?>
<svg id="Livello_1" xmlns="http://www.w3.org/2000/svg" version="1.1" viewBox="170 -20 700 700">
  <!-- Generator: Adobe Illustrator 29.6.1, SVG Export Plug-In . SVG Version: 2.1.1 Build 9)  -->
  <defs>
    <style>
      .st0 {
        fill: #0f4e8a;
      }
    </style>
  </defs>
  <path class="st0" d="M652.4,217.3c1.9-1.8,3.7-2.5,5.5-2,3.6.8,7.2-1.3,8.3-4.8,1-3,1.4-6.2,1.4-9.6.2-61.3.2-97,0-107-.1-5-2.3-11.6-6.4-19.5-9.1-17.4-23.4-26.1-42.8-26.1-231.3,0-349.9-.2-355.7-.3-21.4-.4-36-.2-43.8.8-3.2.4-5.5,1.2-6.9,2.2-.3.2-.4.6-.2.9.2.3.5.4.8.3,1.6-.6,4.4-1,8.3-1.3,6.8-.4,28.8-.5,66-.4,153.9.6,263.6.5,329.1-.4,9.8-.1,17.7,1.6,23.7,5.1,17.8,10.4,26.2,26.2,25.1,47.3-1.2,24.8-1.2,36-.5,61.3.3,12.5.2,27-.4,43.7-.1,3-2.6,5.4-5.6,5.4h-4.8c-3.1,0-5.7-2.4-5.9-5.5-.7-9.8-1.6-12.2-2.7-7.3-2.2-33.9-.5-68.5-.4-102.5,0-9.5-5-17.4-15.1-23.7,1.2-1.2-.2-2.3-4-3.3-9.8-2.7-24.1-1.6-39-1.6-123.2-.5-213.2-.5-270.1,0-41.1.3-65.7.5-73.8.5-12.4,0-20.8,1.5-25.3,4.3-7.5,4.8-11.4,12.4-11.6,22.7-.3,10.5-.9,22-.9,31.2.2,109.6.2,177.8-.3,204.6-.4,23.8-.2,45.1.4,63.8.3,7.5,1.3,12.8,3,15.9,11.6,20.9,36.3,12.9,53.5,14.5,3.2.3,5.4.5,6.5.4,42-.4,87.2-.3,135.5.3,18.1.2,44.8-1.9,62.5.2,3.9.4,6.8,3.7,6.8,7.6v5.2c0,2.8-2.2,5-5,5h-244.4c-.7,0-1.3.4-1.5,1.1-.1.3-.2.7-.4,1.1-8.8-2.2-16-5.8-21.3-10.5-8.3-7.4-14-18.9-17.1-34.3-.3-98.8-.3-198-.2-297.6,0-15.1,1.3-25.5,3.7-31.1,5.7-13.3,16.1-22.6,31.1-27.9,1.6-.5,6.6-.8,14.9-.8,245.9.1,376.7.1,392.5,0,.2,0,.4,0,.6,0,22.2,5,34.8,17.9,42.8,38.8,1.7,4.4,2.3,14.3,1.9,29.9,0,1.5,0,29,0,82.3,0,13.4-1.5,24.7-17.9,21.1h0Z"/>
  <path class="st0" d="M652.4,217.3l-6.2-2.5-1.3-14.9c1.1-4.9,2-2.5,2.7,7.3.2,3.1,2.8,5.5,5.9,5.5h4.8c3,0,5.5-2.4,5.6-5.4.6-16.7.7-31.3.4-43.7-.7-25.3-.7-36.5.5-61.3,1.1-21.1-7.3-36.9-25.1-47.3-6-3.5-13.9-5.2-23.7-5.1-65.6.9-175.3,1-329.1.4-37.3-.1-59.3,0-66,.4-3.9.3-6.7.7-8.3,1.3-.3.1-.7,0-.8-.3-.2-.3-.1-.7.2-.9,1.4-1,3.7-1.8,6.9-2.2,7.8-1,22.4-1.3,43.8-.8,5.9.1,124.4.2,355.7.3,19.4,0,33.7,8.7,42.8,26.1,4.2,8,6.3,14.5,6.4,19.5.2,10,.3,45.6,0,107,0,3.4-.5,6.6-1.4,9.6-1.1,3.6-4.7,5.7-8.3,4.8-1.9-.4-3.7.3-5.5,2h0Z"/>
  <path class="st0" d="M629.4,73.8c-8.3-1.8-19.6-2.7-33.8-2.7-154-.5-275.2-.4-363.7.4-10,.1-17.5,4.8-22.7,14.1-.4.7-.6,1.5-.7,2.4-.6,9-.9,14.3-1,16.1-.2,54.7-.2,117.6.2,188.8.2,36.5.1,72.3-.2,107.4-.2,17.1,14.5,23.9,29.5,23.8,29.8-.1,85.1,0,166.1.6,19.1.1,41-.9,63.2.3.3,0,.5,0,.8.2l5.4,2.2c.3.1.6.1.8,0,.5-.2.7-.5.6-.8l1.2,1.5c-1.1,1-1.5,2.2-1.1,3.7,1,4,.8,8.1-.5,12.4-.3.8-.9,1.5-1.7,1.8-3.5,1.2-6.1,1.9-7.8,1.9-77.9-.3-155.3-.1-232.1.4-1.3,0-3-.2-5.2-.5-1.7-.2-3.5-.4-5.3-.4.1-.4.3-.8.4-1.1.2-.7.8-1.1,1.5-1.1h244.4c2.8,0,5-2.2,5-5v-5.2c0-3.9-2.9-7.2-6.8-7.6-17.7-2-44.4,0-62.5-.2-48.4-.6-93.6-.7-135.5-.3-1.2,0-3.3-.1-6.5-.4-17.2-1.6-41.9,6.4-53.5-14.5-1.8-3.2-2.7-8.5-3-15.9-.7-18.7-.8-40-.4-63.8.4-26.8.5-94.9.3-204.6,0-9.2.7-20.6.9-31.2.2-10.3,4.1-17.9,11.6-22.7,4.4-2.9,12.8-4.3,25.3-4.3,8.1,0,32.7-.2,73.8-.5,56.8-.5,146.9-.5,270.1,0,14.9,0,29.2-1.1,39,1.6,3.8,1,5.2,2.2,4,3.3h0Z"/>
  <path class="st0" d="M629.4,73.8c10.1,6.2,15.2,14.1,15.1,23.7-.1,34-1.8,68.6.4,102.5l1.3,14.9c-2.7-2.9-4.1-5.6-4.1-8.2.3-45.3.4-77.9.4-98,0-11.1-1.3-18.8-3.8-23.1-4.5-7.6-12.5-11.4-24.1-11.4-59,0-186.7,0-383.1.2-9.2,0-15.4,3.5-18.7,10.3-1.8,3.8-2.7,11.2-2.7,22.3,0,28.7,0,125.2,0,289.4,0,8.1,1.1,13.6,3.3,16.5,4.5,5.9,11.6,8.9,21.2,8.8.3,0,76.6,0,228.8,0,3.7,0,7.3,1.6,10.6,4.8,0,.3-.1.6-.6.8-.2.1-.5.1-.8,0l-5.4-2.2c-.2-.1-.5-.2-.8-.2-22.3-1.2-44.1-.1-63.2-.3-81-.5-136.4-.7-166.1-.6-15,0-29.7-6.7-29.5-23.8.4-35.1.4-70.9.2-107.4-.4-71.2-.5-134.1-.2-188.8,0-1.8.3-7.1,1-16.1,0-.8.3-1.6.7-2.4,5.2-9.3,12.7-14,22.7-14.1,88.4-.9,209.6-1,363.7-.4,14.2,0,25.5.9,33.8,2.7h0Z"/>
  <path class="st0" d="M308,138.5h58.5c.5-.2,1-.3,1.6-.2l6.6.3,5.9-.2h17.6s52.8,0,52.8,0h19.9s1.9,0,1.9,0h8.6s34.7.2,34.7.2h38.5c17.7,1,21.9,23.8,4.2,28-.3,0-.6.1-.9.1h-195.6c0,0-20.8,0-20.8,0-13.3,0-26.7-.1-40-.2-6.7,0-11.2-.8-13.5-2.4-9-5.9-8-19.8,2-24.2,5-2.2,12.3-1.4,18.2-1.3h0Z"/>
  <polygon class="st0" points="366.5 138.4 308 138.5 366.5 138.4 366.5 138.4"/>
  <polygon class="st0" points="374.6 138.5 368 138.3 374.6 138.5 374.6 138.5"/>
  <polygon class="st0" points="398.1 138.4 380.5 138.4 398.1 138.4 398.1 138.4"/>
  <polygon class="st0" points="470.8 138.4 450.9 138.3 470.8 138.4 470.8 138.4"/>
  <polygon class="st0" points="481.2 138.3 472.6 138.4 481.2 138.3 481.2 138.3"/>
  <polygon class="st0" points="554.4 138.5 515.9 138.5 554.4 138.5 554.4 138.5"/>
  <polygon class="st0" points="362.1 166.6 341.3 166.6 362.1 166.6 362.1 166.6"/>
  <path class="st0" d="M471.1,247.2c-1.7.2-3.3.7-4.9,1.6,0-.2,0-.4-.1-.7-.1-.4-.5-.7-.9-.7h-165.1c-.3,0-.5.2-.5.4-.1.4-.2.9,0,1.4l-15.9,1.2c-4.5-6.9-5-13.5-1.6-19.8.4-.8,1-1.4,1.7-1.9,4-2.7,7.7-4.1,11.1-4.1,54.9,0,106.1,0,153.7,0,10.1,0,16.8,1.2,20.1,3.6,5,3.7,5.9,10.1,2.6,19.2M458.5,229.4c0-.5-.4-.9-.9-.9h-156.8c-.5,0-.9.4-.9.9h0c0,.6.4,1,.9,1h156.8c.5,0,.9-.4.9-.9h0Z"/>
  <path class="st0" d="M458.5,229.5c0,.5-.4.9-.9.9h-156.8c-.5,0-.9-.4-.9-.9h0c0-.6.4-1,.9-1h156.8c.5,0,.9.4.9.9h0Z"/>
  <path class="st0" d="M781.6,608.6l-.2-50.3c0-.8.7-1.5,1.5-1.5l39.1-.5c.6,0,1.2-.1,1.8-.3,9.1-2.7,14.4-4.4,15.7-5.2,9.1-5.3,15-11.6,17.8-19,2.8-9,4.2-15,4.3-18.2.7-81.3.9-155.1.4-221.3,0-11.4-4.6-21.4-13.5-30.1-8.5-8.3-18.6-15.8-30.1-15.9-28.4-.2-54.4-.1-78,.3-5.8.1-31.8,0-78-.5-30.7-.3-55.1-.2-73.1.4-19.3.6-43.3-3.7-59.7,9.1l-15.8,15.4c-.5.5-1,1.2-1.2,1.9-2.9,7.9-4.4,14.8-4.5,20.9-.2,11.7,0,34.7.6,68.7l.4,14.4-.2,1v12.1c.1,1.3,0,1.8-.5,1.6-.5,56.1-.5,95.4.1,117.9,0,2,.9,6.3,2.4,13.1.3,1.3.8,2.6,1.4,3.7,2,4.1,3.6,8.2,4.7,12.5-7.4-10.1-11.1-22.9-11.1-38.5-.1-40.8-.1-105.4,0-193.8,0-12.4.7-20.9,2.1-25.4,2.6-8.6,7-15.8,13.1-21.7,13.3-12.8,26-14.7,46.2-14.7,104.8.1,188,.1,249.7,0,6.6,0,12.6,1.5,17.9,4.5,4.6,2.6,9.6,6.4,14.8,11.4,5.5,5.2,9.5,11.9,12.1,20.2,1.6,5.2,2.4,13.1,2.4,23.6-.1,91.5-.1,157.1,0,196.8,0,12.5-1.2,21.7-3.7,27.8-8.8,21.4-28.5,29.8-51.3,29.2-6.4-.2-14.6-.1-24.8,0-1.1,0-2,.9-2,2l-.9,48.4h0Z"/>
  <path class="st0" d="M857.3,531.8c-.2-5.4,0-10.5.5-15.4.8-7.5,1.2-12.6,1.2-15.4-.1-23.7-.3-43.7-.5-59.9,0-5.5-1.3-9.7-.9-14.6.5-5.9.1-15.2-.8-20.6-.2-1.2-.1-2.5.2-3.6,1.4-4.8,1.5-10.4.2-16.8-.2-.9-.2-1.9,0-2.8.4-1.8.6-4.4.7-8,.3-17.6,0-34.1-.9-49.7-.3-4.9,0-8.8-.3-15.6,0-.8,0-1.7.3-2.5,3.4-11.9,2.5-23-2.7-33.4-3.7-7.5-14.2-16.9-21.3-20.1-9-4.1-23.3-3-34.7-2.7-14.3.3-44,.4-89.1.2-10.1,0-64.3,0-162.4,0-.2,0-.5,0-.7.1l-16.5,4.7c16.4-12.8,40.4-8.5,59.7-9.1,18-.5,42.3-.7,73.1-.4,46.2.5,72.1.7,78,.5,23.6-.4,49.6-.5,78-.3,11.4.1,21.6,7.6,30.1,15.9,8.9,8.7,13.4,18.7,13.5,30.1.4,66.3.3,140-.4,221.3,0,3.1-1.5,9.2-4.3,18.2h0Z"/>
  <path class="st0" d="M466.2,248.8l-166.7.4c0-.5,0-.9,0-1.4,0-.2.3-.4.5-.4h165.1c.4,0,.8.3.9.7,0,.2,0,.5.1.7h0Z"/>
  <path class="st0" d="M471.1,247.2c-2.1,3.5-4.7,5.3-7.7,5.3-54,0-108.1.1-162.1,0-8.6,0-14.5-.8-17.8-2.2l15.9-1.2,166.7-.4c1.6-.9,3.2-1.4,4.9-1.6h0Z"/>
  <path class="st0" d="M857.3,531.8c-2.8,7.4-8.7,13.8-17.8,19-1.4.8-6.6,2.5-15.7,5.2-.6.2-1.2.2-1.8.3l-39.1.5c-.8,0-1.5.7-1.5,1.5l.2,50.3c.7,5.2-.6,10.3-3.7,15.3-.5.8-1.2,1.5-2,2-6,3.9-12.5,5.2-19.5,3.6-5.8-1.2-7.4-4.9-12-7.7-1-.6-2.6-2.1-4.9-4.4-13.7-13.8-27.3-27.5-40.8-41.2-4.6-6.5-10.1-12.3-16.6-17.5-3.1-2.5-6.6-3.6-10.5-3.3-17.2,1.1-31.4,0-38.8.4-6,.3-17.3.3-34.2-.1-15.1-.4-31.1-.3-48,.3-.8,0-1.6,0-2.4-.4l-22.5-8.3c-3.1-1.7-5.9-4.6-8.7-8.6-1.1-4.3-2.7-8.4-4.7-12.5-.6-1.2-1.1-2.4-1.4-3.7-1.6-6.8-2.4-11.2-2.4-13.1-.6-22.5-.7-61.9-.1-117.9l1,4.2c0,.3.3.4.5.4.3,0,.4-.2.4-.5v-8.6c0-.3-.2-.6-.5-.7s-.6.1-.7.4c-.3.8-.4,1.8-.3,3.1v-12.1c0,.8,0,1.5.2,2.2,0,.2.2.3.4.3.2,0,.4-.2.4-.4,0-.9-.3-1.6-1-2.1l.2-1c.9-.6,1.3-1.5,1.3-2.7,0-3.2-.2-7.6-.7-13.3,0-.2,0-.4,0-.7,0-.2.1-.5,0-.7,0-.1-.1-.2-.3-.2-.2,0-.3.2-.3.3,0,1.1-.3,2.1-.6,3-.6-34.1-.8-57-.6-68.7.1-6,1.6-13,4.5-20.9.3-.7.7-1.4,1.2-1.9l15.8-15.4,16.5-4.7c.2,0,.5-.1.7-.1,98.1,0,152.3,0,162.4,0,45.1.2,74.8.2,89.1-.2,11.4-.3,25.7-1.4,34.7,2.7,7.1,3.2,17.6,12.7,21.3,20.1,5.2,10.4,6.1,21.5,2.7,33.4-.2.8-.3,1.7-.3,2.5.3,6.9,0,10.7.3,15.6.9,15.6,1.2,32.1.9,49.7,0,3.6-.3,6.2-.7,8-.2.9-.2,1.9,0,2.8,1.3,6.5,1.2,12.1-.2,16.8-.3,1.2-.4,2.4-.2,3.6.9,5.4,1.3,14.8.8,20.6-.4,4.9.9,9.1.9,14.6.2,16.2.4,36.2.5,59.9,0,2.7-.4,7.8-1.2,15.4-.5,4.9-.7,10-.5,15.4M531.3,294.1c.5.8,1.2,1.1,2.1,1-.4,3.6-.6,7.3-.6,11-.1,43.4,0,108.1.1,194,0,7.4.8,12.7,2.2,15.9,6.5,14.1,20.4,15.2,35.5,15.1,37.9-.3,75.3-.3,112.2,0,7,0,10.3,2.4,14.9,6.8,17.9,17.1,32.8,32,44.7,44.9,2.7,3,7.5,6.4,11,9.9,1.1,1.1,3,.2,2.8-1.3-1.5-19-.8-37.7,1.9-56.1,17.6-2,36.4-2.7,56.4-2.2,6.6.2,13-1.8,19.1-5.9,4.8-2.7,7.6-7.2,8.2-13.7,1.3-12.7,1.5-37.4.5-56.2-.8-14.9.7-31.1.5-45.1-.3-30-.9-65.8.6-100,0,0,0-.1,0-.2l-1.4-16.5c0-.2,0-.4-.1-.6-2.4-7.8-6.8-14.8-13.2-20.9-4.8-4.6-11-5.5-17.3-5.5-66.1-.5-133-.8-200.5-.8-16.5,0-35,.5-55.5,1.4-10.6.5-14.1,4.1-21.8,12.4-.9,1-1.6,2.1-2.1,3.3-3.6,8.9-5.1,18.6-4.3,29.1.6,8.8.6,19.7,0,32.8-.3,6.8,1,12.3.4,18-.4,3.4-.4,7.9-.1,13.5.5,9.3.4,18.1-.4,26.6-.5,5.7,1,10.9.3,17.4-.6,5.2-.5,12.2.3,21.2.3,3.5.1,7.3-.5,11.4-.2,1.2-.2,2.3.1,3.5.7,2.9.6,6.1-.1,9.5,0,.2,0,.3,0,.4v36.7c0,.2,0,.3.2.4h0c.3,0,.5-.2.5-.5.7-41.5.8-70.9,0-88.4-.5-12.3.3-29.2.2-38.5-.3-25.3.2-51.7,1.5-79.2,0-1.2.6-2.7,1.5-4.6M693,537.5c-.5-1.2-1.9-2-4-2.3-5-.7-8.7-1-11.1-1-35.8.3-74.3.2-115.4-.1-.3,0-.6,0-.9-.2l-5.5-1.8c-.2,0-.4-.1-.7-.1-7.8-.1-15.8-1.6-18.5-9.4-.2-.7-.8-1.3-1.6-1.5l-1.3-.4c-.8-.3-1.4-.9-1.6-1.7l-3-12c0,0-.1-.1-.2-.1l-.7.2c-.3.1-.5.3-.4.6,1,10.9,6,18.9,15,24.2,2,1.2,5.6,1.9,10.6,2,1,0,1.9.2,2.8.7.5.3,1.5.5,2.7.6,12.8,1.6,32.5,2,59.1,1.2,20.5-.6,44.8,0,68-1,1.7,0,3.7.8,5.9,2.6.3.3.8-.1.7-.5M740.6,585.8c.3-.3.3-.7,0-1l-39.5-39.2c-.3-.3-.7-.3-1,0h0c-.3.4-.3.8,0,1.1l39.5,39.2c.3.3.7.3,1,0h0Z"/>
  <path class="st0" d="M833.8,527.2c4.4-6.8,6.6-13.8,6.7-21.2.4-44.2.4-110.2,0-197.8,0-9.6-1-16.2-2.7-19.7-5.2-10.3-13.7-17.8-25.7-17.8-33.9,0-98.6-.2-194.1-.5-14.7,0-24.8,0-30.3.2-16.8.6-26.9.8-30.4.5-7.7-.5-12.3,2-17.2,7.2-4.8,5.1-7.7,10.4-8.7,16.1-1,1.9-1.5,3.4-1.5,4.6-1.3,27.5-1.8,53.9-1.5,79.2.1,9.3-.6,26.2-.2,38.5.7,17.4.7,46.9,0,88.4,0,.3-.2.5-.5.5h0c-.2,0-.3-.2-.3-.4v-36.7c0-.1,0-.3,0-.4.8-3.5.8-6.6.1-9.5-.3-1.2-.3-2.3-.1-3.5.6-4.1.8-7.9.5-11.4-.8-8.9-.9-16-.3-21.2.7-6.6-.8-11.7-.3-17.4.8-8.5.9-17.3.4-26.6-.3-5.6-.3-10.1.1-13.5.6-5.7-.7-11.3-.4-18,.7-13.1.7-24.1,0-32.8-.8-10.5.7-20.2,4.3-29.1.5-1.2,1.2-2.4,2.1-3.3,7.8-8.3,11.3-12,21.8-12.4,20.5-.9,39-1.4,55.5-1.4,67.5,0,134.3.2,200.5.8,6.3,0,12.6,1,17.3,5.5,6.4,6.1,10.8,13.1,13.2,20.9,0,.2.1.4.1.6l1.4,16.5c0,0,0,.1,0,.2-1.5,34.3-.9,70.1-.6,100,.2,13.9-1.4,30.2-.5,45.1,1,18.9.8,43.6-.5,56.2-.7,6.4-3.4,11-8.2,13.7h0Z"/>
  <path class="st0" d="M833.8,527.2c-6.1,4.1-12.5,6.1-19.1,5.9-20-.5-38.8.3-56.4,2.2,4.8-2.8,9-4.2,12.5-4.1,19.6.3,36.1.2,49.5-.5,14.2-.7,17.6-16.4,17.6-27.6,0-95.5,0-162.5,0-201,0-13.8-6.3-23.3-18.9-28.4-.8-.3-1.8-.5-2.7-.5l-31.8-.2h-2.6c-.2,0-.4,0-.7,0h-2c-67.4,0-134.7,0-202,0-15.6,0-24.8.5-27.6,1.4-8.5,2.9-14,9.8-16.3,20.7-.9.1-1.6-.2-2.1-1,1-5.6,3.9-11,8.7-16.1,4.9-5.1,9.5-7.7,17.2-7.2,3.5.2,13.6,0,30.4-.5,5.5-.2,15.6-.3,30.3-.2,95.5.3,160.2.4,194.1.5,12,0,20.5,7.5,25.7,17.8,1.8,3.5,2.7,10.1,2.7,19.7.4,87.7.5,153.6,0,197.8,0,7.3-2.3,14.4-6.7,21.2h0Z"/>
  <polygon class="st0" points="781.3 273 779.4 273 781.3 273 781.3 273"/>
  <polygon class="st0" points="784.6 273 782 273 784.6 273 784.6 273"/>
  <path class="st0" d="M290,341.7c.1-.4.4-.9.8-1.3,1.9.5,3.8.8,5.8.9,46,.4,92,.3,138-.4.9,0,2.8-.5,5.5-1.6,3.8-.5,5.8-3.5,5.7-8.8,1.5-8.9-2.4-13.4-11.8-13.4-48.6,0-97.2,0-145.7,0-.7,0-1.4,0-2.2-.4,1.5-1.3,3.1-2,4.7-2,95.4,0,144,0,145.9,0,.8,0,1.7.2,2.4.6,3.6,2.1,5.9,3.8,6.7,5.2,7.8,12.9-.9,23.1-14.4,23.1-63,0-108.4,0-136-.2-1.6,0-3.4-.5-5.4-1.4h0Z"/>
  <path class="st0" d="M286.1,316.5c.8.4,1.5.5,2.2.4-.5,1.4-.3,2.1.6,2.1,48.8,1.1,97.6,1.3,146.5.6,6,0,9.5,3.5,10.5,10.8,0,5.4-1.8,8.3-5.7,8.8-.3-.9-1-1.4-2.3-1.4-49.7-.3-99.4-.2-149.2.2-.7,0-.9.9-.3,1.2l2.4,1.2c-.4.4-.7.8-.8,1.3-6.6-1.2-10-4.7-10.4-10.6-.3-4.8.6-13.3,6.5-14.6h0Z"/>
  <path class="st0" d="M445.8,330.5c-1-7.2-4.5-10.9-10.5-10.8-48.8.7-97.6.5-146.5-.6-.9,0-1.1-.7-.6-2.1,48.6,0,97.1,0,145.7,0,9.4,0,13.4,4.5,11.8,13.4h0Z"/>
  <path class="st0" d="M779.4,335.8c-.7.3-1.2.8-1.6,1.5-.4-.5-.9-.8-1.5-.6-.4,0-.6.5-.5.9,2.2,8.3-.8,12-9.8,11.8-52.5-1.3-106.3-1.2-161.3.3-.3,0-.5,0-.8-.1-3.1-.9-5.3-1.8-6.4-2.8-.3-.3-.8-.1-.9.3,0,.2,0,.5.2.8-1.2-1-2.4-1.2-3.8-.6-3.2-8.7-2.2-14.6,3-17.7,2.7-1.6,9.2-2.4,19.3-2.4,50.1,0,100.1,0,150.2.2,7,0,11.6,2.8,13.9,8.4M697.1,331c5.5.5,10.8.4,15.9-.3,0,0,.1,0,.1-.1s0-.1-.1-.1c-5.4-.6-10.7-.4-15.9.6l-94.6-1.2c-.3,0-.5.2-.5.5v.8s0,0,0,0l94.3,1.4c.4,0,.7-.3.8-.6,0-.4,0-.7,0-1M599.9,331.2c-.3-.4-1.5,0-2.6,1.1-1.1,1-1.8,2.1-1.4,2.4.3.4,1.5,0,2.6-1.1,1.1-1,1.8-2.1,1.4-2.4h0Z"/>
  <path class="st0" d="M697.1,331c.1.3.1.6,0,1,0,.3-.4.6-.8.6l-94.3-1.4c0,0,0,0,0,0v-.8c0-.3.2-.5.5-.5l94.6,1.2h0Z"/>
  <path class="st0" d="M697.1,331c5.2-1,10.5-1.2,15.9-.6,0,0,.1,0,.1.1s0,.1-.1.1c-5.1.7-10.4.8-15.9.3h0Z"/>
  <path class="st0" d="M599.9,331.2c.3.4-.3,1.5-1.4,2.4-1.1,1-2.3,1.4-2.6,1.1-.3-.4.3-1.5,1.4-2.4,1.1-1,2.3-1.4,2.6-1.1h0Z"/>
  <path class="st0" d="M777.9,337.4c.7,4.1.5,7.3-.7,9.9-1.1,2.4-3.5,3.8-6.1,3.8-46.7-.4-93.2-.5-139.4,0-7.7,0-20.2,1.2-29.6.3-2.2-.2-3.9-1.3-5.2-3.4-.2-.3-.3-.5-.2-.8.1-.4.6-.6.9-.3,1.1,1,3.2,1.9,6.4,2.8.3,0,.5.1.8.1,55-1.5,108.7-1.7,161.3-.3,9,.2,12-3.5,9.8-11.8-.1-.4.1-.8.5-.9.5-.1,1,0,1.5.6h0Z"/>
  <path class="st0" d="M779.4,335.8c3.5,12.2-.7,18.2-12.6,18.2-63.3-.2-115.1-.3-155.6-.2-5.6,0-9.3-.1-11.1-.3-.7,0-1.3-.4-1.8-.9l-5.2-5.3c1.4-.7,2.6-.4,3.8.6,1.3,2,3.1,3.2,5.2,3.4,9.4.9,21.9-.2,29.6-.3,46.2-.4,92.7-.4,139.4,0,2.6,0,5-1.5,6.1-3.8,1.2-2.5,1.4-5.8.7-9.9.3-.7.9-1.2,1.6-1.5h0Z"/>
  <path class="st0" d="M440.1,339.3c-2.7,1.1-4.6,1.6-5.5,1.6-46,.7-92,.8-138,.4-2,0-3.9-.3-5.8-.9l-2.4-1.2c-.6-.3-.4-1.2.3-1.2,49.8-.4,99.5-.4,149.2-.2,1.3,0,2,.5,2.3,1.4h0Z"/>
  <path class="st0" d="M509.2,376.8l-.4-14.4c.4-.9.6-1.9.6-3,0-.2.1-.3.3-.3.1,0,.3,0,.3.2,0,.2,0,.5,0,.7,0,.3-.1.5,0,.7.5,5.7.7,10.1.7,13.3,0,1.2-.4,2.1-1.3,2.7h0Z"/>
  <path class="st0" d="M509,377.8c.7.5,1,1.3,1,2.1,0,.2-.2.4-.4.4-.2,0-.4-.1-.4-.3-.2-.7-.2-1.4-.1-2.2h0Z"/>
  <path class="st0" d="M508.5,391.5c.4.2.6-.3.5-1.6,0-1.3,0-2.3.3-3.1.1-.3.4-.5.7-.4s.5.3.5.7v8.6c0,.3-.2.5-.4.5-.3,0-.5-.1-.5-.4l-1-4.2h0Z"/>
  <path class="st0" d="M735.8,387.9c.3,1.9-.1,2.6-1.2,2.2h-130.9c-.8.1-1.6.3-2.4.5l-6,2.2c-.5.3-.9.3-1.3,0l1.2-1.9c.3-.5.8-.9,1.4-1.1l8-2.4c.4-.1.9-.2,1.4-.2l129.7.5h0Z"/>
  <path class="st0" d="M594.1,393c.3.3.7.2,1.3,0l.3,1.2c.1.5.7.7,1.1.4,2.1-1.4,4.2-2.1,6.6-2.1,44.7.7,88.8.7,132.3-.3.5,0,.8-.7.3-1l-1.4-1c1.1.4,1.5-.4,1.2-2.2,6.1,2.9,9.4,6.5,10,11,1.3,10.2-3,15.4-13.1,15.5-20.5.2-63.5.1-129-.2-.9,0-1.8-.2-2.6-.5-7.3-3-10.5-8.6-9.5-16.8,0-.8.4-1.6,1-2.2l1.5-1.7M742.8,407.4c-1.6.6-2.9,1-3.8,1.1-8,.8-18.1,1.1-30.4.8-11-.3-46.4-.3-106.2-.2-.6,0-1.3-.1-1.9-.4-2.7-1.3-4.6-3.2-5.6-5.9,0,0-.1-.1-.2-.1l-.7.3c-.3.1-.5.5-.3.8,2.2,5,6.5,7.5,12.8,7.5,38.7-.1,79.9-.2,123.6-.3,3.2,0,6.7-.3,10.5-1,1.6-.3,2.6-.8,3-1.6.3-.5-.2-1.2-.8-.9h0Z"/>
  <path class="st0" d="M734.6,390.2l1.4,1c.4.3.2,1-.3,1-43.6.9-87.7,1-132.3.3-2.3,0-4.5.6-6.6,2.1-.4.3-1,0-1.1-.4l-.3-1.2,6-2.2c.8-.3,1.6-.4,2.4-.4h130.9Z"/>
  <path class="st0" d="M221.5,447.2c1.8,0,3.6.2,5.3.4,2.2.3,3.9.5,5.2.5,76.8-.6,154.2-.7,232.1-.4,1.7,0,4.3-.6,7.8-1.9.8-.3,1.4-.9,1.7-1.8,1.3-4.3,1.5-8.4.5-12.4-.4-1.5,0-2.7,1.1-3.7,4.7,11.8,1.8,19.2-8.9,22.2-.5.2-1.1.2-1.7.2-57.8,0-127.6.2-209.3.2-18.4,0-29.5-.4-33.5-1.3-11.2-2.6-20.5-8.4-28-17.4-6.5-7.9-10.1-17.7-10.8-29.5,3.1,15.5,8.8,26.9,17.1,34.3,5.4,4.8,12.5,8.3,21.3,10.5h0Z"/>
  <path class="st0" d="M743.6,408.4c-.4.8-1.5,1.3-3,1.6-3.8.7-7.3,1-10.5,1-43.7,0-84.9.2-123.6.3-6.3,0-10.6-2.5-12.8-7.5-.2-.3,0-.7.3-.8l.7-.3c0,0,.2,0,.2.1,1.1,2.7,3,4.7,5.6,5.9.6.3,1.2.4,1.9.4,59.8-.2,95.2-.1,106.2.2,12.3.3,22.4,0,30.4-.8.9,0,2.1-.4,3.8-1.1.6-.2,1.1.4.8.9h0Z"/>
  <path class="st0" d="M710.5,464.7c0,7.2-5.9,13.1-13.2,13.1l-92.9-.3c-7.2,0-13.1-5.9-13.1-13.2v-.8c0-7.2,5.9-13.1,13.2-13.1l92.9.3c7.2,0,13.1,5.9,13.1,13.2v.8M602.5,473.5c0,0,0,0,0,0l99.2-.2c3.9,0,6.6-3.7,5.5-7.4l-2.2-7.5c-.9-3.1-3.8-5.3-7.1-5.2-17,.3-48.5.3-94.6-.2-1.2,0-3.6,1.1-7.3,3.3-.2.1-.3.4-.2.7h0c.2.3.5.3.7.2,2.2-1.5,4.4-2.3,6.6-2.2,30.3,1.2,61.8,1.3,94.4.3,1,0,2,.2,2.8.8,4.2,2.6,6,6.6,5.3,12.1-.3,2.3-2.1,4.1-4.3,4.3-7.4.9-14.9.9-22.5,0-6-.7-11-.9-15.2-.7-9.8.5-14.9.8-15.2.9-.9.2-1.8.3-2.6,0-12.4-2.4-21.7-.5-42.9.2-.2,0-.4.2-.4.4M596.3,470.3c1,1.2,2,1.9,2.9,2.1.3,0,.6,0,.7-.4.1-.3,0-.6-.3-.8-1.2-.6-1.9-1.2-2.4-1.7-.5-.5-.9-1.4-1.4-2.6-.1-.3-.4-.5-.7-.4-.3,0-.5.4-.5.7.1.9.7,2,1.7,3.1h0Z"/>
  <path class="st0" d="M602.9,473.1c21.2-.7,30.5-2.6,42.9-.2.9.2,1.8.2,2.6,0,.3,0,5.4-.4,15.2-.9,4.2-.2,9.3,0,15.2.7,7.6.8,15.1.8,22.5,0,2.3-.3,4.1-2,4.3-4.3.6-5.4-1.2-9.5-5.3-12.1-.8-.5-1.8-.8-2.8-.8-32.6.9-64.1.8-94.4-.3-2.2,0-4.4.7-6.6,2.2-.2.2-.5.1-.7-.1h0c-.1-.3,0-.6.2-.7,3.7-2.2,6.1-3.3,7.3-3.3,46.1.5,77.6.5,94.6.2,3.3,0,6.2,2,7.1,5.2l2.2,7.5c1.1,3.7-1.7,7.4-5.5,7.4l-99.2.2c0,0,0,0,0,0,0-.2.2-.4.4-.4h0Z"/>
  <path class="st0" d="M597.2,469.5c.5.5,1.3,1.1,2.4,1.7.3.2.4.5.3.8-.1.3-.4.5-.7.4-.9-.3-1.8-1-2.9-2.1-1-1.2-1.6-2.2-1.7-3.1,0-.3.2-.6.5-.7.3,0,.6.1.7.4.5,1.2.9,2.1,1.4,2.6h0Z"/>
  <path class="st0" d="M692.3,538c-2.2-1.8-4.2-2.7-5.9-2.6-23.3,1-47.5.4-68,1-26.6.8-46.3.4-59.1-1.2-1.3-.2-2.2-.4-2.7-.6-.9-.4-1.9-.6-2.8-.7-5.1-.1-8.6-.8-10.6-2-9-5.3-14-13.4-15-24.2,0-.3.2-.5.4-.6l.7-.2c0,0,.2,0,.2.1l3,12c.2.8.8,1.5,1.6,1.7l1.3.4c.7.2,1.3.8,1.6,1.5,2.7,7.8,10.6,9.3,18.5,9.4.2,0,.4,0,.7.1l5.5,1.8c.3.1.6.2.9.2,41.1.3,79.6.4,115.4.1,2.4,0,6.1.3,11.1,1,2.1.3,3.4,1,4,2.3.2.4-.3.8-.7.5h0Z"/>
  <path class="st0" d="M740.6,585.8c-.3.3-.7.3-1,0l-39.5-39.2c-.3-.3-.3-.7,0-1h0c.3-.3.7-.3,1,0l39.5,39.2c.3.3.3.7,0,1h0Z"/>
  <path class="st0" d="M698.7,576.2l-18.6-17.3c-.6-.6-1.4-.9-2.2-.9-39.9,0-79.8,0-119.7,0s-23.6-3.6-32.4-10.6l22.5,8.3c.8.3,1.6.4,2.4.4,16.9-.6,33-.7,48-.3,16.8.4,28.2.4,34.2.1,7.4-.4,21.6.7,38.8-.4,3.9-.2,7.4.9,10.5,3.3,6.5,5.2,12,11,16.6,17.5h0Z"/>
</svg>