<svg xmlns="http://www.w3.org/2000/svg" width="74.53" height="74.53" viewBox="0 0 74.53 74.53">
  <defs>
    <style>
      .ed0d853f-c96f-458a-b4dd-b2877bbd018c {
        fill: #0f4e8b;
      }
    </style>
  </defs>
  <g id="efbaa85a-d128-4106-a86c-d97e631ae9cd" data-name="Livello 2">
    <g id="b2313671-48f7-4cb7-9efb-34009def4fd7" data-name="Livello 1">
      <g>
        <path class="ed0d853f-c96f-458a-b4dd-b2877bbd018c" d="M28.57,16.15a1.24,1.24,0,0,0,1.24,1.24H44.72A1.25,1.25,0,0,0,46,16.15a8.7,8.7,0,0,0-5-7.87,5,5,0,1,0-7.35,0,8.7,8.7,0,0,0-5,7.87M34.78,5a2.49,2.49,0,1,1,2.48,2.48A2.49,2.49,0,0,1,34.78,5m2.48,5a6.23,6.23,0,0,1,6.09,5H31.18a6.21,6.21,0,0,1,6.08-5"/>
        <path class="ed0d853f-c96f-458a-b4dd-b2877bbd018c" d="M48.44,24.84a1.24,1.24,0,0,0,1.24,1.24H64.59a1.23,1.23,0,0,0,1.24-1.24,8.68,8.68,0,0,0-5-7.86,5,5,0,1,0-7.35,0,8.68,8.68,0,0,0-5,7.86m6.21-11.18a2.49,2.49,0,1,1,2.49,2.49,2.49,2.49,0,0,1-2.49-2.49m2.49,5a6.21,6.21,0,0,1,6.08,5H51.05a6.23,6.23,0,0,1,6.09-5"/>
        <path class="ed0d853f-c96f-458a-b4dd-b2877bbd018c" d="M57.14,48.44a4.95,4.95,0,0,0-3.68,8.28,8.7,8.7,0,0,0-5,7.87,1.24,1.24,0,0,0,1.24,1.24H64.59a1.23,1.23,0,0,0,1.24-1.24,8.7,8.7,0,0,0-5-7.87,4.89,4.89,0,0,0,1.29-3.31,5,5,0,0,0-5-5m-2.49,5a2.49,2.49,0,1,1,2.49,2.48,2.49,2.49,0,0,1-2.49-2.48m8.57,9.94H51.05a6.21,6.21,0,0,1,12.17,0"/>
        <path class="ed0d853f-c96f-458a-b4dd-b2877bbd018c" d="M28.57,73.28a1.24,1.24,0,0,0,1.24,1.25H44.72A1.25,1.25,0,0,0,46,73.28a8.7,8.7,0,0,0-5-7.86,5,5,0,1,0-7.35,0,8.7,8.7,0,0,0-5,7.86m6.21-11.17a2.49,2.49,0,1,1,2.48,2.48,2.49,2.49,0,0,1-2.48-2.48m2.48,5a6.23,6.23,0,0,1,6.09,5H31.18a6.21,6.21,0,0,1,6.08-5"/>
        <path class="ed0d853f-c96f-458a-b4dd-b2877bbd018c" d="M69.51,36.85a5,5,0,1,0-7.35,0,8.69,8.69,0,0,0-5,7.87A1.24,1.24,0,0,0,58.38,46h14.9a1.25,1.25,0,0,0,1.25-1.24,8.7,8.7,0,0,0-5-7.87m-6.16-3.31A2.49,2.49,0,1,1,65.83,36a2.49,2.49,0,0,1-2.48-2.48m-3.6,9.93a6.21,6.21,0,0,1,12.17,0Z"/>
        <path class="ed0d853f-c96f-458a-b4dd-b2877bbd018c" d="M8.69,24.84a1.24,1.24,0,0,0,1.25,1.24h14.9a1.23,1.23,0,0,0,1.24-1.24,8.67,8.67,0,0,0-5-7.86,5,5,0,1,0-7.36,0,8.68,8.68,0,0,0-5,7.86m6.22-11.18a2.48,2.48,0,1,1,2.48,2.49,2.48,2.48,0,0,1-2.48-2.49m2.48,5a6.21,6.21,0,0,1,6.08,5H11.3a6.23,6.23,0,0,1,6.09-5"/>
        <path class="ed0d853f-c96f-458a-b4dd-b2877bbd018c" d="M8.69,64.59a1.24,1.24,0,0,0,1.25,1.24h14.9a1.23,1.23,0,0,0,1.24-1.24,8.69,8.69,0,0,0-5-7.87,5,5,0,1,0-7.36,0,8.7,8.7,0,0,0-5,7.87m6.22-11.18a2.48,2.48,0,1,1,2.48,2.49,2.48,2.48,0,0,1-2.48-2.49m2.48,5a6.21,6.21,0,0,1,6.08,5H11.3a6.23,6.23,0,0,1,6.09-5"/>
        <path class="ed0d853f-c96f-458a-b4dd-b2877bbd018c" d="M0,44.72A1.25,1.25,0,0,0,1.24,46H16.15a1.25,1.25,0,0,0,1.24-1.24,8.7,8.7,0,0,0-5-7.87,4.91,4.91,0,0,0,1.29-3.31,5,5,0,1,0-9.93,0A4.91,4.91,0,0,0,5,36.85a8.7,8.7,0,0,0-5,7.87M6.21,33.54A2.49,2.49,0,1,1,8.69,36a2.49,2.49,0,0,1-2.48-2.48m2.48,5a6.23,6.23,0,0,1,6.09,5H2.61a6.23,6.23,0,0,1,6.08-5"/>
        <path class="ed0d853f-c96f-458a-b4dd-b2877bbd018c" d="M23.6,37.26A13.67,13.67,0,1,0,37.26,23.6,13.68,13.68,0,0,0,23.6,37.26M37.26,26.08A11.18,11.18,0,1,1,26.08,37.26,11.19,11.19,0,0,1,37.26,26.08"/>
      </g>
    </g>
  </g>
</svg>
