<?xml version="1.0" encoding="UTF-8"?>
<svg id="Livello_1" xmlns="http://www.w3.org/2000/svg" version="1.1" viewBox="0 0 841.9 595.3">
  <!-- Generator: Adobe Illustrator 29.8.1, SVG Export Plug-In . SVG Version: 2.1.1 Build 2)  -->
  <defs>
    <style>
      .st0, .st1 {
        fill: none;
        stroke-width: 5px;
      }

      .st0, .st1, .st2 {
        stroke-miterlimit: 10;
      }

      .st0, .st2, .st3 {
        stroke: #0f4e8a;
      }

      .st1 {
        stroke: #1f3b7c;
      }

      .st4 {
        fill: #0f4e8a;
      }

      .st2, .st3 {
        fill: #fff;
        stroke-width: 10px;
      }

      .st3 {
        stroke-miterlimit: 10;
      }
    </style>
  </defs>
  <g>
    <path class="st2" d="M432.1,211.3l20.2-49.1c4.4-10.9,13.3-19.3,24.9-23.7l74.1-28.1c3.7-1.4,7.9-1.4,11.6,0l48.1,19.8c3.7,1.6,6.7,4.4,8.2,8.1l33,72c5.1,11.2,5.4,23.5,1.1,34.4l-20.2,49.1-97.2,236.7c-4.4,10.9-17.7,15.6-29.8,10.7l-157.4-64.8c-11.9-4.9-18.1-17.7-13.7-28.6l97.2-236.7v.2h0Z"/>
    <g>
      <circle class="st1" cx="476.9" cy="380.6" r="34.2"/>
      <path class="st0" d="M522,444l18.4-18.3c1.2-1.2,1.2-3.2,0-4.4l-9.7-9.7c-.9-.9-1.1-2.3-.5-3.5,1.6-3,2.8-6.1,3.9-9.3.4-1.2,1.6-2.1,2.8-2.1h11.4c3,0,5.4-2.5,5.4-5.4v-23.5c0-1.8-1.4-3.2-3.2-3.2h-13.7c-1.2,0-2.5-.9-2.8-2.1-1.1-3.2-2.3-6.3-3.9-9.3-.5-1.2-.4-2.5.5-3.5l9.7-9.7c1.2-1.2,1.2-3.2,0-4.4l-18.4-18.3c-1.2-1.2-3.2-1.2-4.4,0l-9.7,9.7c-.9.9-2.3,1.1-3.5.5-3-1.6-6.1-2.8-9.3-3.9-1.2-.4-2.1-1.6-2.1-2.8v-13.7c0-1.8-1.4-3.2-3.2-3.2h-26c-1.8,0-3.2,1.4-3.2,3v13.7c0,1.2-.9,2.5-2.1,2.8-3.2,1.1-6.3,2.3-9.3,3.9-1.2.5-2.5.4-3.5-.5l-9.7-9.7c-1.2-1.2-3.2-1.2-4.4,0l-18.4,18.3c-1.2,1.2-1.2,3.2,0,4.4l9.7,9.7c.9.9,1.1,2.3.5,3.5-1.6,3-2.8,6.1-3.9,9.3-.4,1.2-1.6,2.1-2.8,2.1h-13.7c-1.8,0-3.2,1.4-3.2,3.2v25.8c0,1.8,1.4,3.2,3.2,3.2h13.7c1.2,0,2.5.9,2.8,2.1,1.1,3.2,2.3,6.3,3.9,9.3.5,1.2.4,2.5-.5,3.5l-9.7,9.7c-1.2,1.2-1.2,3.2,0,4.4l18.4,18.3c1.2,1.2,3.2,1.2,4.4,0l9.7-9.7c.9-.9,2.3-1.1,3.5-.5,3,1.6,6.1,2.8,9.3,3.9,1.2.4,2.1,1.6,2.1,2.8v13.7c0,1.8,1.4,3.2,3.2,3.2h26c1.8,0,3.2-1.4,3.2-3v-13.7c0-1.2.9-2.5,2.1-2.8,3.2-1.1,6.3-2.3,9.3-3.9,1.2-.5,2.5-.4,3.5.5l9.7,9.7c1.2,1.2,3.2,1.2,4.4,0h0ZM452.7,404.9c-13.3-13.3-13.3-34.9,0-48.3,13.3-13.3,35.1-13.3,48.4,0,13.3,13.3,13.3,34.9,0,48.3s-35.1,13.3-48.4,0Z"/>
    </g>
    <g>
      <path class="st2" d="M355.4,134.1l44.6-43.5c9.8-9.7,23.3-14.6,37.7-13.9l92.5,4.2c4.7.2,9.1,2.1,12.3,5.6l42.6,43.5c3.3,3.3,5.1,7.7,5.3,12.5l1.9,92.7c.4,14.4-4.9,27.7-14.7,37.4l-44.6,43.5-214.3,209.2c-9.8,9.7-26.3,8.6-37-2.3l-139.2-142.5c-10.5-10.9-11.2-27.4-1.4-37l214.3-209.2v-.2h0Z"/>
      <circle class="st3" cx="502.1" cy="168.9" r="31.2" transform="translate(136.8 552.6) rotate(-65)"/>
    </g>
  </g>
  <g>
    <path class="st4" d="M280.7,373.2l24.8-71.8,6.9,7.3-21.4,59.9.2.2,60.8-18.7,6.9,7.3-72.8,21.5-5.4-5.7h0Z"/>
    <path class="st4" d="M369.8,355l-43.5-104.3,7.2-6.8,43.4,104.4-7.1,6.7Z"/>
    <path class="st4" d="M433.9,237.8l-24.9,71.7-6.9-7.3,21.7-60.2-.2-.2-61.2,19-6.9-7.3,72.8-21.6,5.6,5.9Z"/>
  </g>
</svg>