<svg xmlns="http://www.w3.org/2000/svg" xmlns:xlink="http://www.w3.org/1999/xlink" id="Livello_1" x="0px" y="0px" width="70.87px" height="70.87px" viewBox="0 0 70.87 70.87" xml:space="preserve">
<path fill="#0F4E8A" d="M65.967,5H6.033C5.462,5,5,5.464,5,6.033v37.2c0,0.571,0.462,1.034,1.033,1.034h10.333v1.872  c-1.85,1.074-3.1,3.072-3.1,5.36c0,2.011,0.966,3.795,2.453,4.929c-3.267,1.443-5.554,4.711-5.554,8.505v1.034  c0,0.569,0.463,1.032,1.034,1.032h16.533h16.533H60.8c0.57,0,1.032-0.463,1.032-1.032v-1.034c0-3.794-2.285-7.062-5.552-8.505  c1.487-1.134,2.453-2.918,2.453-4.929c0-2.288-1.25-4.286-3.1-5.36v-1.872h10.333c0.57,0,1.033-0.463,1.033-1.034v-37.2  C67,5.464,66.537,5,65.967,5 M15.332,51.5c0-2.278,1.855-4.133,4.135-4.133c2.278,0,4.133,1.854,4.133,4.133  c0,2.28-1.854,4.135-4.133,4.135C17.188,55.635,15.332,53.78,15.332,51.5 M48.786,56.429c-1.95,0.862-3.547,2.376-4.52,4.264  c-0.973-1.888-2.568-3.401-4.521-4.264c1.487-1.134,2.454-2.918,2.454-4.929c0-1.589-0.605-3.034-1.592-4.133h7.317  c-0.987,1.099-1.594,2.544-1.594,4.133C46.332,53.511,47.3,55.295,48.786,56.429 M40.134,51.5c0,2.28-1.854,4.135-4.134,4.135  s-4.134-1.854-4.134-4.135c0-2.278,1.854-4.133,4.134-4.133S40.134,49.222,40.134,51.5 M32.253,56.429  c-1.951,0.862-3.548,2.376-4.52,4.264c-0.973-1.888-2.569-3.401-4.52-4.264c1.486-1.134,2.452-2.918,2.452-4.929  c0-1.589-0.604-3.034-1.591-4.133h7.317C30.405,48.466,29.8,49.911,29.8,51.5C29.8,53.511,30.767,55.295,32.253,56.429 M19.467,57.7  c3.988,0,7.233,3.245,7.233,7.233H12.233C12.233,60.945,15.479,57.7,19.467,57.7 M36,57.7c3.987,0,7.233,3.245,7.233,7.233H28.767  C28.767,60.945,32.013,57.7,36,57.7 M59.767,64.934H45.3c0-3.988,3.246-7.233,7.233-7.233S59.767,60.945,59.767,64.934   M52.533,55.635c-2.279,0-4.133-1.854-4.133-4.135c0-2.278,1.854-4.133,4.133-4.133s4.133,1.854,4.133,4.133  C56.666,53.78,54.813,55.635,52.533,55.635 M18.434,45.301v-7.233c0-0.571-0.462-1.034-1.033-1.034H14.3v-2.065h13.434h16.533H57.7  v2.065H54.6h-3.1v2.067h2.066v6.2H18.434z M28.172,25.765c-0.36-0.168-0.791-0.115-1.1,0.143l-2.809,2.34  c-0.667,0.557-1.503,0.802-2.366,0.694c-0.86-0.107-1.614-0.552-2.125-1.253l-5.07-6.973l2.473-1.854l4.552,6.373  c0.164,0.231,0.417,0.384,0.698,0.424c0.28,0.041,0.566-0.04,0.789-0.218l3.468-2.774c0.911-0.73,2.059-1.133,3.226-1.133h12.185  c1.168,0,2.314,0.402,3.227,1.133l3.468,2.774c0.223,0.178,0.509,0.258,0.789,0.218c0.279-0.04,0.534-0.192,0.698-0.424l4.552-6.373  l2.473,1.854l-5.07,6.973c-0.51,0.701-1.265,1.146-2.125,1.253c-0.862,0.107-1.7-0.139-2.366-0.694l-2.809-2.34  c-0.308-0.257-0.737-0.311-1.1-0.143c-0.362,0.17-0.595,0.535-0.595,0.936v6.2h-6.2v-9.3h-2.066v9.3h-6.2v-6.2  C28.767,26.3,28.534,25.935,28.172,25.765 M31.866,15.334c0-2.279,1.854-4.134,4.134-4.134s4.134,1.854,4.134,4.134  S38.279,19.468,36,19.468S31.866,17.613,31.866,15.334 M64.934,42.2h-9.3v-3.1h3.1c0.571,0,1.033-0.463,1.033-1.033v-4.134  c0-0.57-0.462-1.033-1.033-1.033H45.3v-3.994l1.112,0.928c1.096,0.912,2.539,1.334,3.945,1.158c1.412-0.174,2.703-0.936,3.541-2.088  l5.67-7.795c0.332-0.457,0.236-1.096-0.216-1.434l-4.134-3.101c-0.223-0.168-0.498-0.236-0.778-0.194  c-0.274,0.043-0.521,0.194-0.682,0.421l-4.532,6.344l-2.615-2.092c-1.279-1.023-2.883-1.586-4.519-1.586h-1.484  c0.986-1.1,1.592-2.544,1.592-4.134c0-3.42-2.781-6.199-6.2-6.199c-3.42,0-6.2,2.779-6.2,6.199c0,1.59,0.605,3.034,1.592,4.134  h-1.484c-1.637,0-3.241,0.563-4.519,1.585l-2.615,2.093l-4.533-6.345c-0.16-0.227-0.408-0.378-0.683-0.421  c-0.279-0.041-0.556,0.027-0.777,0.194l-4.134,3.1c-0.452,0.34-0.548,0.978-0.216,1.435l5.67,7.795  c0.838,1.151,2.129,1.913,3.541,2.089c1.404,0.174,2.851-0.247,3.944-1.158l1.114-0.928V32.9H13.267  c-0.571,0-1.033,0.463-1.033,1.033v4.134c0,0.57,0.462,1.033,1.033,1.033h3.1v3.1h-9.3V7.067h57.867V42.2z"></path>
</svg>